<svg width="1440" height="333" viewBox="0 0 1440 333" fill="none" xmlns="http://www.w3.org/2000/svg">
  <!-- Apply rotation to make the zigzag perfectly horizontal -->
  <path d="M1339.72 28.8704L1235.81 129.931C1229.58 135.998 1220.13 137.336 1212.46 133.241L1097.4 71.8676C1089.72 67.7728 1080.28 69.1108 1074.04 75.1771L980.606 166.051C974.368 172.119 964.922 173.456 957.244 169.358L842.266 107.986C834.588 103.888 825.142 105.225 818.903 111.293L738.968 189.042C732.731 195.109 723.288 196.447 715.611 192.352L617.161 139.841C609.484 135.747 600.041 137.085 593.804 143.151L500.368 234.028C494.131 240.095 484.687 241.433 477.01 237.338L361.951 175.965C354.274 171.87 344.831 173.208 338.593 179.274L245.161 270.148C238.922 276.216 229.476 277.553 221.799 273.455L106.82 212.083C99.1426 207.985 89.6965 209.322 83.4579 215.389L-11.3541 307.602C-15.4425 311.578 -14.4877 318.382 -9.46264 321.079C-6.22269 322.818 -2.22943 322.257 0.406529 319.694L86.3845 236.067C92.6231 229.999 102.069 228.662 109.747 232.76L224.725 294.132C232.403 298.23 241.849 296.893 248.088 290.825L341.52 199.951C347.757 193.885 357.201 192.547 364.877 196.642L479.937 258.015C487.614 262.11 497.057 260.771 503.294 254.705L596.727 163.831C602.965 157.763 612.412 156.426 620.089 160.525L718.539 213.077C726.219 217.176 735.668 215.837 741.907 209.766L821.83 131.977C828.068 125.905 837.517 124.566 845.197 128.665L960.171 190.035C967.848 194.133 977.295 192.796 983.533 186.728L1076.97 95.854C1083.2 89.7877 1092.65 88.4496 1100.32 92.5444L1215.38 153.918C1223.06 158.012 1232.5 156.674 1238.74 150.608L1332.18 59.7305C1338.41 53.6643 1347.86 52.3262 1355.53 56.4208L1461.42 112.9C1464.66 114.629 1468.65 114.054 1471.28 111.478C1475.33 107.499 1474.35 100.731 1469.34 98.0567L1339.72 28.8704Z" 
        fill="#EF4444"
        transform="rotate(8.0563, 720, 166.5)" />
  <!-- Rotating by 8.0563 degrees to counter the original -8.0563 degree rotation -->
</svg>